<?xml version="1.0" encoding="UTF-8" standalone="no"?>
<!DOCTYPE svg PUBLIC "-//W3C//DTD SVG 1.1//EN" "http://www.w3.org/Graphics/SVG/1.1/DTD/svg11.dtd">
<svg width="100%" height="100%" viewBox="0 0 872 425" version="1.1" xmlns="http://www.w3.org/2000/svg" xmlns:xlink="http://www.w3.org/1999/xlink" xml:space="preserve" xmlns:serif="http://www.serif.com/" style="fill-rule:evenodd;clip-rule:evenodd;">
    <g transform="matrix(0,-1,-1,0,118.667,296.969)">
        <clipPath id="_clip1">
            <rect x="-1" y="-3.5" width="57.667" height="7" clip-rule="nonzero"/>
        </clipPath>
        <g clip-path="url(#_clip1)">
            <path d="M0,0L55.667,0" style="fill:none;fill-rule:nonzero;stroke:black;stroke-width:5px;"/>
        </g>
    </g>
    <g transform="matrix(0,1,1,0,416.393,224.606)">
        <clipPath id="_clip2">
            <rect x="-1" y="-3.5" width="91.058" height="7" clip-rule="nonzero"/>
        </clipPath>
        <g clip-path="url(#_clip2)">
            <path d="M0,0L89.058,0" style="fill:none;fill-rule:nonzero;stroke:black;stroke-width:5px;"/>
        </g>
    </g>
    <g transform="matrix(0,-1,-1,0,118.667,175.293)">
        <clipPath id="_clip3">
            <rect x="-1" y="-3.5" width="57.667" height="7" clip-rule="nonzero"/>
        </clipPath>
        <g clip-path="url(#_clip3)">
            <path d="M0,0L55.667,0" style="fill:none;fill-rule:nonzero;stroke:black;stroke-width:5px;"/>
        </g>
    </g>
    <g transform="matrix(0.707107,0.707107,0.707107,-0.707107,59.203,104.261)">
        <rect x="379.8" y="52.157" width="73.186" height="73.186" style="fill:rgb(108,228,207);"/>
    </g>
    <g transform="matrix(1,0,0,-1,191.554,206.042)">
        <clipPath id="_clip4">
            <rect x="-1" y="-3.5" width="181.26" height="7" clip-rule="nonzero"/>
        </clipPath>
        <g clip-path="url(#_clip4)">
            <path d="M0,0L179.26,0" style="fill:none;fill-rule:nonzero;stroke:black;stroke-width:5px;"/>
        </g>
    </g>
    <g transform="matrix(1,0,0,1,0,-12.6068)">
        <path d="M369.121,180.148L463.665,180.148C473.758,180.148 479.814,180.148 483.851,181.834C489.671,183.952 494.256,188.537 496.374,194.357C498.06,198.394 498.06,204.45 498.06,214.543L498.06,222.753C498.06,232.847 498.06,238.903 496.374,242.94C494.256,248.76 489.671,253.344 483.851,255.463C479.814,257.148 473.758,257.148 463.665,257.148L369.121,257.148C359.028,257.148 352.972,257.148 348.935,255.463C343.115,253.344 338.53,248.76 336.412,242.94C334.727,238.903 334.727,232.847 334.727,222.753L334.727,214.543C334.727,204.45 334.727,198.394 336.412,194.357C338.53,188.537 343.115,183.952 348.935,181.834C352.972,180.148 359.028,180.148 369.121,180.148Z" style="fill:rgb(90,196,246);fill-rule:nonzero;"/>
    </g>
    <g transform="matrix(1,0,0,1,0,-12.6068)">
        <path d="M71.395,180.148L165.938,180.148C176.032,180.148 182.087,180.148 186.125,181.834C191.945,183.952 196.529,188.537 198.648,194.357C200.333,198.394 200.333,204.45 200.333,214.543L200.333,222.753C200.333,232.847 200.333,238.903 198.648,242.94C196.529,248.76 191.945,253.344 186.125,255.463C182.087,257.148 176.032,257.148 165.938,257.148L71.395,257.148C61.302,257.148 55.246,257.148 51.209,255.463C45.389,253.344 40.804,248.76 38.686,242.94C37,238.903 37,232.847 37,222.753L37,214.543C37,204.45 37,198.394 38.686,194.357C40.804,188.537 45.389,183.952 51.209,181.834C55.246,180.148 61.302,180.148 71.395,180.148Z" style="fill:rgb(246,206,70);fill-rule:nonzero;"/>
    </g>
    <g transform="matrix(0,-1,-1,0,252.572,205.939)">
        <clipPath id="_clip5">
            <rect x="-1" y="-3.5" width="91.058" height="7" clip-rule="nonzero"/>
        </clipPath>
        <g clip-path="url(#_clip5)">
            <path d="M0,0L89.058,0" style="fill:none;fill-rule:nonzero;stroke:black;stroke-width:5px;"/>
        </g>
    </g>
    <g transform="matrix(1,0,0,1,0,-224.57)">
        <path d="M224.554,296.796L280.589,296.796C287.553,296.796 291.732,296.796 294.518,297.959C298.533,299.421 301.697,302.585 303.159,306.6C304.322,309.386 304.322,313.565 304.322,320.529L304.322,328.731C304.322,335.695 304.322,339.873 303.159,342.659C301.697,346.675 298.533,349.838 294.518,351.3C291.732,352.463 287.553,352.463 280.589,352.463L224.554,352.463C217.59,352.463 213.411,352.463 210.625,351.3C206.61,349.838 203.446,346.675 201.985,342.659C200.822,339.873 200.822,335.695 200.822,328.731L200.822,320.529C200.822,313.565 200.822,309.386 201.985,306.6C203.446,302.585 206.61,299.421 210.625,297.959C213.411,296.796 217.59,296.796 224.554,296.796Z" style="fill:rgb(90,196,246);fill-rule:nonzero;"/>
    </g>
    <g transform="matrix(1,0,0,1,0,-224.57)">
        <path d="M93.006,296.796L144.327,296.796C151.983,296.796 156.577,296.796 159.639,298.075C164.054,299.682 167.531,303.159 169.138,307.574C170.417,310.636 170.417,315.23 170.417,322.886L170.417,326.374C170.417,334.03 170.417,338.623 169.138,341.686C167.531,346.1 164.054,349.578 159.639,351.185C156.577,352.463 151.983,352.463 144.327,352.463L93.006,352.463C85.35,352.463 80.757,352.463 77.694,351.185C73.28,349.578 69.802,346.1 68.195,341.686C66.917,338.623 66.917,334.03 66.917,326.374L66.917,322.886C66.917,315.23 66.917,310.636 68.195,307.574C69.802,303.159 73.28,299.682 77.694,298.075C80.757,296.796 85.35,296.796 93.006,296.796Z" style="fill:rgb(235,83,159);fill-rule:nonzero;"/>
    </g>
    <g transform="matrix(0.707107,0.707107,0.707107,-0.707107,-27.9991,314.786)">
        <rect x="82.074" y="52.157" width="73.186" height="73.186" style="fill:rgb(108,228,207);"/>
    </g>
    <g transform="matrix(1,0,0,1,0,-159.315)">
        <path d="M666.848,264.169L799.614,264.169C809.542,264.169 815.5,264.169 819.471,265.673C825.528,267.878 830.3,272.649 832.504,278.706C833.674,281.259 834.009,287.574 834.009,292.002C834.009,296.431 833.674,302.745 832.504,305.298C830.3,311.355 825.528,316.127 819.471,318.331C815.5,319.836 809.542,319.836 799.614,319.836L666.848,319.836C656.919,319.836 650.962,319.836 646.991,318.331C640.933,316.127 636.162,311.355 633.957,305.298C632.788,302.745 632.453,296.431 632.453,292.002C632.453,287.574 632.788,281.259 633.957,278.706C636.162,272.649 640.933,267.878 646.991,265.673C650.962,264.169 656.919,264.169 666.848,264.169Z" style="fill:rgb(246,206,70);fill-rule:nonzero;"/>
    </g>
    <g transform="matrix(1,0,0,1,0,-16.2735)">
        <path d="M666.848,192.648L799.614,192.648C809.542,192.648 815.5,192.648 819.471,194.153C825.528,196.357 830.3,201.129 832.504,207.186C833.674,209.739 834.009,216.053 834.009,220.482C834.009,224.91 833.674,231.225 832.504,233.778C830.3,239.835 825.528,244.606 819.471,246.811C815.5,248.315 809.542,248.315 799.614,248.315L666.848,248.315C656.919,248.315 650.962,248.315 646.991,246.811C640.933,244.606 636.162,239.835 633.957,233.778C632.788,231.225 632.453,224.91 632.453,220.482C632.453,216.053 632.788,209.739 633.957,207.186C636.162,201.129 640.933,196.357 646.991,194.153C650.962,192.648 656.919,192.648 666.848,192.648Z" style="fill:rgb(90,196,246);fill-rule:nonzero;"/>
    </g>
    <g transform="matrix(1,0,0,1,0,126.768)">
        <path d="M666.848,121.128L799.614,121.128C809.542,121.128 815.5,121.128 819.471,122.632C825.528,124.836 830.3,129.608 832.504,135.665C833.674,138.218 834.009,144.532 834.009,148.961C834.009,153.389 833.674,159.704 832.504,162.257C830.3,168.314 825.528,173.085 819.471,175.29C815.5,176.794 809.542,176.794 799.614,176.794L666.848,176.794C656.919,176.794 650.962,176.794 646.991,175.29C640.933,173.085 636.162,168.314 633.957,162.257C632.788,159.704 632.453,153.389 632.453,148.961C632.453,144.532 632.788,138.218 633.957,135.665C636.162,129.608 640.933,124.836 646.991,122.632C650.962,121.128 656.919,121.128 666.848,121.128Z" style="fill:rgb(235,83,159);fill-rule:nonzero;"/>
    </g>
    <g transform="matrix(1,0,0,1,0,269.81)">
        <path d="M666.848,49.607L799.614,49.607C809.542,49.607 815.5,49.607 819.471,51.111C825.528,53.316 830.3,58.087 832.504,64.144C833.674,66.697 834.009,73.011 834.009,77.44C834.009,81.869 833.674,88.183 832.504,90.736C830.3,96.793 825.528,101.565 819.471,103.769C815.5,105.273 809.542,105.273 799.614,105.273L666.848,105.273C656.919,105.273 650.962,105.273 646.991,103.769C640.933,101.565 636.162,96.793 633.957,90.736C632.788,88.183 632.453,81.869 632.453,77.44C632.453,73.011 632.788,66.697 633.957,64.144C636.162,58.087 640.933,53.316 646.991,51.111C650.962,49.607 656.919,49.607 666.848,49.607Z" style="fill:rgb(108,228,207);fill-rule:nonzero;"/>
    </g>
    <g transform="matrix(18,0,0,18,398.274,342.479)">
        <path d="M0.354,0.012C0.536,0.012 0.649,-0.093 0.649,-0.249L0.649,-0.705L0.501,-0.705L0.501,-0.262C0.501,-0.171 0.449,-0.113 0.354,-0.113C0.259,-0.113 0.206,-0.171 0.206,-0.262L0.206,-0.705L0.059,-0.705L0.059,-0.249C0.059,-0.092 0.173,0.012 0.354,0.012Z" style="fill-rule:nonzero;"/>
    </g>
    <g transform="matrix(18,0,0,18,412.135,342.479)">
        <path d="M0.316,0.012C0.494,0.012 0.6,-0.074 0.6,-0.209L0.6,-0.209C0.6,-0.32 0.534,-0.38 0.386,-0.41L0.312,-0.425C0.23,-0.441 0.194,-0.467 0.194,-0.511L0.194,-0.512C0.194,-0.562 0.24,-0.597 0.315,-0.597C0.388,-0.597 0.439,-0.563 0.446,-0.508L0.447,-0.502L0.586,-0.502L0.585,-0.512C0.579,-0.635 0.479,-0.717 0.315,-0.717C0.159,-0.717 0.047,-0.632 0.047,-0.503L0.047,-0.502C0.047,-0.396 0.117,-0.33 0.256,-0.302L0.331,-0.288C0.418,-0.27 0.453,-0.246 0.453,-0.198L0.453,-0.197C0.453,-0.144 0.401,-0.108 0.32,-0.108C0.239,-0.108 0.181,-0.142 0.172,-0.197L0.171,-0.202L0.032,-0.202L0.032,-0.194C0.041,-0.064 0.148,0.012 0.316,0.012Z" style="fill-rule:nonzero;"/>
    </g>
    <g transform="matrix(18,0,0,18,424.624,342.479)">
        <path d="M0.059,-0L0.371,-0C0.521,-0 0.614,-0.077 0.614,-0.201L0.614,-0.202C0.614,-0.294 0.543,-0.363 0.445,-0.371L0.445,-0.374C0.523,-0.384 0.582,-0.45 0.582,-0.527L0.582,-0.528C0.582,-0.636 0.498,-0.705 0.365,-0.705L0.059,-0.705L0.059,-0ZM0.327,-0.595C0.396,-0.595 0.437,-0.563 0.437,-0.507L0.437,-0.506C0.437,-0.445 0.392,-0.41 0.309,-0.41L0.206,-0.41L0.206,-0.595L0.327,-0.595ZM0.327,-0.31C0.417,-0.31 0.464,-0.275 0.464,-0.211L0.464,-0.21C0.464,-0.145 0.417,-0.11 0.333,-0.11L0.206,-0.11L0.206,-0.31L0.327,-0.31Z" style="fill-rule:nonzero;"/>
    </g>
    <g transform="matrix(18,0,0,18,382.506,212.065)">
        <path d="M0.014,-0L0.168,-0L0.222,-0.171L0.471,-0.171L0.524,-0L0.679,-0L0.433,-0.705L0.26,-0.705L0.014,-0ZM0.345,-0.568L0.348,-0.568L0.437,-0.281L0.256,-0.281L0.345,-0.568Z" style="fill-rule:nonzero;"/>
    </g>
    <g transform="matrix(18,0,0,18,394.011,212.065)">
        <path d="M0.227,-0L0.375,-0L0.375,-0.583L0.579,-0.583L0.579,-0.705L0.023,-0.705L0.023,-0.583L0.227,-0.583L0.227,-0Z" style="fill-rule:nonzero;"/>
    </g>
    <g transform="matrix(18,0,0,18,404.409,212.065)">
        <path d="M0.046,-0L0.189,-0L0.189,-0.316C0.189,-0.375 0.226,-0.416 0.28,-0.416C0.333,-0.416 0.364,-0.383 0.364,-0.327L0.364,-0L0.501,-0L0.501,-0.318C0.501,-0.376 0.537,-0.416 0.591,-0.416C0.646,-0.416 0.677,-0.383 0.677,-0.322L0.677,-0L0.819,-0L0.819,-0.358C0.819,-0.463 0.75,-0.534 0.648,-0.534C0.571,-0.534 0.509,-0.492 0.485,-0.426L0.482,-0.426C0.465,-0.495 0.412,-0.534 0.338,-0.534C0.268,-0.534 0.213,-0.495 0.192,-0.436L0.189,-0.436L0.189,-0.523L0.046,-0.523L0.046,-0Z" style="fill-rule:nonzero;"/>
    </g>
    <g transform="matrix(18,0,0,18,420.705,212.065)">
        <path d="M0.285,0.011C0.434,0.011 0.506,-0.078 0.522,-0.155L0.524,-0.16L0.393,-0.16L0.392,-0.157C0.382,-0.128 0.346,-0.096 0.288,-0.096C0.215,-0.096 0.169,-0.145 0.168,-0.228L0.528,-0.228L0.528,-0.272C0.528,-0.43 0.432,-0.534 0.279,-0.534C0.125,-0.534 0.027,-0.428 0.027,-0.261L0.027,-0.261C0.027,-0.093 0.125,0.011 0.285,0.011ZM0.281,-0.428C0.34,-0.428 0.383,-0.39 0.392,-0.318L0.169,-0.318C0.179,-0.389 0.223,-0.428 0.281,-0.428Z" style="fill-rule:nonzero;"/>
    </g>
    <g transform="matrix(18,0,0,18,431.455,212.065)">
        <path d="M0.291,0.182C0.448,0.182 0.546,0.102 0.546,-0.015L0.546,-0.523L0.404,-0.523L0.404,-0.434L0.401,-0.434C0.373,-0.495 0.315,-0.534 0.242,-0.534C0.109,-0.534 0.027,-0.435 0.027,-0.268L0.027,-0.268C0.027,-0.105 0.108,-0.007 0.239,-0.007C0.315,-0.007 0.374,-0.042 0.401,-0.097L0.404,-0.097L0.404,-0.017C0.404,0.042 0.365,0.08 0.291,0.08C0.231,0.08 0.193,0.058 0.182,0.032L0.181,0.028L0.042,0.028L0.042,0.033C0.056,0.117 0.147,0.182 0.291,0.182ZM0.289,-0.112C0.217,-0.112 0.172,-0.17 0.172,-0.264L0.172,-0.265C0.172,-0.358 0.218,-0.416 0.289,-0.416C0.358,-0.416 0.404,-0.358 0.404,-0.265L0.404,-0.264C0.404,-0.17 0.358,-0.112 0.289,-0.112Z" style="fill-rule:nonzero;"/>
    </g>
    <g transform="matrix(18,0,0,18,442.89,212.065)">
        <path d="M0.202,0.008C0.271,0.008 0.327,-0.024 0.356,-0.078L0.359,-0.078L0.359,-0L0.502,-0L0.502,-0.359C0.502,-0.464 0.415,-0.534 0.279,-0.534C0.141,-0.534 0.058,-0.465 0.05,-0.368L0.05,-0.362L0.18,-0.362L0.181,-0.367C0.188,-0.4 0.22,-0.425 0.273,-0.425C0.329,-0.425 0.359,-0.396 0.359,-0.35L0.359,-0.318L0.23,-0.31C0.1,-0.302 0.026,-0.246 0.026,-0.151L0.026,-0.15C0.026,-0.058 0.097,0.008 0.202,0.008ZM0.167,-0.157L0.167,-0.158C0.167,-0.195 0.196,-0.219 0.251,-0.222L0.359,-0.229L0.359,-0.191C0.359,-0.137 0.313,-0.096 0.249,-0.096C0.199,-0.096 0.167,-0.119 0.167,-0.157Z" style="fill-rule:nonzero;"/>
    </g>
    <g transform="matrix(18,0,0,18,102.481,212.065)">
        <path d="M0.046,-0L0.189,-0L0.189,-0.301C0.189,-0.369 0.229,-0.416 0.293,-0.416C0.357,-0.416 0.39,-0.377 0.39,-0.309L0.39,-0L0.532,-0L0.532,-0.338C0.532,-0.46 0.467,-0.534 0.352,-0.534C0.272,-0.534 0.219,-0.498 0.192,-0.438L0.189,-0.438L0.189,-0.523L0.046,-0.523L0.046,-0Z" style="fill-rule:nonzero;"/>
    </g>
    <g transform="matrix(18,0,0,18,113.387,212.065)">
        <path d="M0.059,-0L0.206,-0L0.206,-0.255L0.324,-0.255L0.456,-0L0.623,-0L0.474,-0.277C0.552,-0.308 0.602,-0.385 0.602,-0.478L0.602,-0.479C0.602,-0.621 0.508,-0.705 0.35,-0.705L0.059,-0.705L0.059,-0ZM0.206,-0.367L0.206,-0.589L0.332,-0.589C0.404,-0.589 0.451,-0.546 0.451,-0.479L0.451,-0.478C0.451,-0.409 0.407,-0.367 0.333,-0.367L0.206,-0.367Z" style="fill-rule:nonzero;"/>
    </g>
    <g transform="matrix(18,0,0,18,125.443,212.065)">
        <path d="M0.059,-0L0.206,-0L0.206,-0.277L0.493,-0.277L0.493,-0.394L0.206,-0.394L0.206,-0.583L0.52,-0.583L0.52,-0.705L0.059,-0.705L0.059,-0Z" style="fill-rule:nonzero;"/>
    </g>
    <g>
        <g transform="matrix(14.4,0,0,14.4,227.912,96.9203)">
            <path d="M0.376,0.012C0.586,0.012 0.716,-0.128 0.716,-0.352L0.716,-0.353C0.716,-0.577 0.585,-0.717 0.376,-0.717C0.168,-0.717 0.037,-0.577 0.037,-0.353L0.037,-0.352C0.037,-0.128 0.167,0.012 0.376,0.012ZM0.376,-0.113C0.261,-0.113 0.187,-0.205 0.187,-0.352L0.187,-0.353C0.187,-0.5 0.261,-0.592 0.376,-0.592C0.492,-0.592 0.566,-0.5 0.566,-0.353L0.566,-0.352C0.566,-0.206 0.494,-0.113 0.376,-0.113Z" style="fill-rule:nonzero;"/>
        </g>
        <g transform="matrix(14.4,0,0,14.4,239.399,96.9203)">
            <path d="M0.046,0.171L0.189,0.171L0.189,-0.089L0.192,-0.089C0.22,-0.027 0.279,0.011 0.354,0.011C0.485,0.011 0.566,-0.092 0.566,-0.262L0.566,-0.262C0.566,-0.433 0.485,-0.534 0.352,-0.534C0.278,-0.534 0.221,-0.496 0.192,-0.432L0.189,-0.432L0.189,-0.523L0.046,-0.523L0.046,0.171ZM0.305,-0.107C0.236,-0.107 0.188,-0.167 0.188,-0.261L0.188,-0.262C0.188,-0.356 0.236,-0.416 0.305,-0.416C0.376,-0.416 0.421,-0.358 0.421,-0.262L0.421,-0.262C0.421,-0.167 0.376,-0.107 0.305,-0.107Z" style="fill-rule:nonzero;"/>
        </g>
        <g transform="matrix(14.4,0,0,14.4,248.593,96.9203)">
            <path d="M0.254,0.011C0.284,0.011 0.307,0.008 0.323,0.005L0.323,-0.099C0.314,-0.098 0.305,-0.097 0.292,-0.097C0.25,-0.097 0.228,-0.113 0.228,-0.162L0.228,-0.416L0.323,-0.416L0.323,-0.523L0.228,-0.523L0.228,-0.651L0.083,-0.651L0.083,-0.523L0.011,-0.523L0.011,-0.416L0.083,-0.416L0.083,-0.146C0.083,-0.034 0.138,0.011 0.254,0.011Z" style="fill-rule:nonzero;"/>
        </g>
        <g transform="matrix(14.4,0,0,14.4,254.364,96.9203)">
            <path d="M0.121,-0.591C0.164,-0.591 0.197,-0.625 0.197,-0.665C0.197,-0.706 0.164,-0.739 0.121,-0.739C0.078,-0.739 0.044,-0.706 0.044,-0.665C0.044,-0.625 0.078,-0.591 0.121,-0.591ZM0.049,-0L0.192,-0L0.192,-0.523L0.049,-0.523L0.049,-0Z" style="fill-rule:nonzero;"/>
        </g>
        <g transform="matrix(14.4,0,0,14.4,258.482,96.9203)">
            <path d="M0.286,0.011C0.425,0.011 0.516,-0.076 0.522,-0.19L0.522,-0.193L0.39,-0.193L0.389,-0.189C0.379,-0.136 0.344,-0.101 0.287,-0.101C0.216,-0.101 0.172,-0.159 0.172,-0.262L0.172,-0.262C0.172,-0.362 0.216,-0.422 0.286,-0.422C0.345,-0.422 0.38,-0.384 0.389,-0.334L0.39,-0.33L0.522,-0.33L0.522,-0.333C0.517,-0.447 0.426,-0.534 0.284,-0.534C0.127,-0.534 0.027,-0.43 0.027,-0.263L0.027,-0.262C0.027,-0.093 0.126,0.011 0.286,0.011Z" style="fill-rule:nonzero;"/>
        </g>
        <g transform="matrix(14.4,0,0,14.4,266.98,96.9203)">
            <path d="M0.202,0.008C0.271,0.008 0.327,-0.024 0.356,-0.078L0.359,-0.078L0.359,-0L0.502,-0L0.502,-0.359C0.502,-0.464 0.415,-0.534 0.279,-0.534C0.141,-0.534 0.058,-0.465 0.05,-0.368L0.05,-0.362L0.18,-0.362L0.181,-0.367C0.188,-0.4 0.22,-0.425 0.273,-0.425C0.329,-0.425 0.359,-0.396 0.359,-0.35L0.359,-0.318L0.23,-0.31C0.1,-0.302 0.026,-0.246 0.026,-0.151L0.026,-0.15C0.026,-0.058 0.097,0.008 0.202,0.008ZM0.167,-0.157L0.167,-0.158C0.167,-0.195 0.196,-0.219 0.251,-0.222L0.359,-0.229L0.359,-0.191C0.359,-0.137 0.313,-0.096 0.249,-0.096C0.199,-0.096 0.167,-0.119 0.167,-0.157Z" style="fill-rule:nonzero;"/>
        </g>
        <g transform="matrix(14.4,0,0,14.4,275.514,96.9203)">
            <rect x="0.05" y="-0.705" width="0.143" height="0.705" style="fill-rule:nonzero;"/>
        </g>
        <g transform="matrix(14.4,0,0,14.4,229.168,113.92)">
            <path d="M0.262,0.011C0.396,0.011 0.491,-0.057 0.491,-0.159L0.491,-0.16C0.491,-0.237 0.446,-0.28 0.336,-0.303L0.248,-0.322C0.195,-0.333 0.177,-0.351 0.177,-0.377L0.177,-0.378C0.177,-0.412 0.208,-0.434 0.257,-0.434C0.31,-0.434 0.34,-0.405 0.345,-0.368L0.346,-0.364L0.477,-0.364L0.477,-0.369C0.474,-0.46 0.396,-0.534 0.257,-0.534C0.124,-0.534 0.038,-0.47 0.038,-0.37L0.038,-0.37C0.038,-0.292 0.089,-0.241 0.19,-0.219L0.279,-0.201C0.331,-0.189 0.348,-0.173 0.348,-0.146L0.348,-0.145C0.348,-0.111 0.315,-0.09 0.262,-0.09C0.205,-0.09 0.174,-0.114 0.165,-0.155L0.164,-0.16L0.024,-0.16L0.025,-0.155C0.036,-0.056 0.117,0.011 0.262,0.011Z" style="fill-rule:nonzero;"/>
        </g>
        <g transform="matrix(14.4,0,0,14.4,237.137,113.92)">
            <path d="M0.285,0.011C0.434,0.011 0.506,-0.078 0.522,-0.155L0.524,-0.16L0.393,-0.16L0.392,-0.157C0.382,-0.128 0.346,-0.096 0.288,-0.096C0.215,-0.096 0.169,-0.145 0.168,-0.228L0.528,-0.228L0.528,-0.272C0.528,-0.43 0.432,-0.534 0.279,-0.534C0.125,-0.534 0.027,-0.428 0.027,-0.261L0.027,-0.261C0.027,-0.093 0.125,0.011 0.285,0.011ZM0.281,-0.428C0.34,-0.428 0.383,-0.39 0.392,-0.318L0.169,-0.318C0.179,-0.389 0.223,-0.428 0.281,-0.428Z" style="fill-rule:nonzero;"/>
        </g>
        <g transform="matrix(14.4,0,0,14.4,245.689,113.92)">
            <path d="M0.046,-0L0.189,-0L0.189,-0.301C0.189,-0.369 0.229,-0.416 0.293,-0.416C0.357,-0.416 0.39,-0.377 0.39,-0.309L0.39,-0L0.532,-0L0.532,-0.338C0.532,-0.46 0.467,-0.534 0.352,-0.534C0.272,-0.534 0.219,-0.498 0.192,-0.438L0.189,-0.438L0.189,-0.523L0.046,-0.523L0.046,-0Z" style="fill-rule:nonzero;"/>
        </g>
        <g transform="matrix(14.4,0,0,14.4,254.544,113.92)">
            <path d="M0.262,0.011C0.396,0.011 0.491,-0.057 0.491,-0.159L0.491,-0.16C0.491,-0.237 0.446,-0.28 0.336,-0.303L0.248,-0.322C0.195,-0.333 0.177,-0.351 0.177,-0.377L0.177,-0.378C0.177,-0.412 0.208,-0.434 0.257,-0.434C0.31,-0.434 0.34,-0.405 0.345,-0.368L0.346,-0.364L0.477,-0.364L0.477,-0.369C0.474,-0.46 0.396,-0.534 0.257,-0.534C0.124,-0.534 0.038,-0.47 0.038,-0.37L0.038,-0.37C0.038,-0.292 0.089,-0.241 0.19,-0.219L0.279,-0.201C0.331,-0.189 0.348,-0.173 0.348,-0.146L0.348,-0.145C0.348,-0.111 0.315,-0.09 0.262,-0.09C0.205,-0.09 0.174,-0.114 0.165,-0.155L0.164,-0.16L0.024,-0.16L0.025,-0.155C0.036,-0.056 0.117,0.011 0.262,0.011Z" style="fill-rule:nonzero;"/>
        </g>
        <g transform="matrix(14.4,0,0,14.4,262.512,113.92)">
            <path d="M0.287,0.011C0.445,0.011 0.546,-0.091 0.546,-0.262L0.546,-0.263C0.546,-0.432 0.443,-0.534 0.286,-0.534C0.13,-0.534 0.027,-0.431 0.027,-0.263L0.027,-0.262C0.027,-0.091 0.127,0.011 0.287,0.011ZM0.287,-0.101C0.217,-0.101 0.172,-0.159 0.172,-0.262L0.172,-0.263C0.172,-0.364 0.217,-0.422 0.286,-0.422C0.355,-0.422 0.401,-0.364 0.401,-0.263L0.401,-0.262C0.401,-0.16 0.356,-0.101 0.287,-0.101Z" style="fill-rule:nonzero;"/>
        </g>
        <g transform="matrix(14.4,0,0,14.4,271.318,113.92)">
            <path d="M0.046,-0L0.189,-0L0.189,-0.293C0.189,-0.369 0.23,-0.411 0.3,-0.411C0.321,-0.411 0.34,-0.408 0.352,-0.403L0.352,-0.529C0.341,-0.532 0.327,-0.534 0.311,-0.534C0.25,-0.534 0.208,-0.497 0.192,-0.432L0.189,-0.432L0.189,-0.523L0.046,-0.523L0.046,-0Z" style="fill-rule:nonzero;"/>
        </g>
    </g>
    <g transform="matrix(18,0,0,18,85.7216,106.5)">
        <path d="M0.059,-0L0.371,-0C0.521,-0 0.614,-0.077 0.614,-0.201L0.614,-0.202C0.614,-0.294 0.543,-0.363 0.445,-0.371L0.445,-0.374C0.523,-0.384 0.582,-0.45 0.582,-0.527L0.582,-0.528C0.582,-0.636 0.498,-0.705 0.365,-0.705L0.059,-0.705L0.059,-0ZM0.327,-0.595C0.396,-0.595 0.437,-0.563 0.437,-0.507L0.437,-0.506C0.437,-0.445 0.392,-0.41 0.309,-0.41L0.206,-0.41L0.206,-0.595L0.327,-0.595ZM0.327,-0.31C0.417,-0.31 0.464,-0.275 0.464,-0.211L0.464,-0.21C0.464,-0.145 0.417,-0.11 0.333,-0.11L0.206,-0.11L0.206,-0.31L0.327,-0.31Z" style="fill-rule:nonzero;"/>
    </g>
    <g transform="matrix(18,0,0,18,97.5885,106.5)">
        <path d="M0.225,0.011C0.304,0.011 0.357,-0.026 0.384,-0.086L0.387,-0.086L0.387,-0L0.53,-0L0.53,-0.523L0.387,-0.523L0.387,-0.223C0.387,-0.154 0.347,-0.107 0.283,-0.107C0.219,-0.107 0.187,-0.147 0.187,-0.215L0.187,-0.523L0.044,-0.523L0.044,-0.186C0.044,-0.063 0.109,0.011 0.225,0.011Z" style="fill-rule:nonzero;"/>
    </g>
    <g transform="matrix(18,0,0,18,108.313,106.5)">
        <path d="M0.254,0.011C0.284,0.011 0.307,0.008 0.323,0.005L0.323,-0.099C0.314,-0.098 0.305,-0.097 0.292,-0.097C0.25,-0.097 0.228,-0.113 0.228,-0.162L0.228,-0.416L0.323,-0.416L0.323,-0.523L0.228,-0.523L0.228,-0.651L0.083,-0.651L0.083,-0.523L0.011,-0.523L0.011,-0.416L0.083,-0.416L0.083,-0.146C0.083,-0.034 0.138,0.011 0.254,0.011Z" style="fill-rule:nonzero;"/>
    </g>
    <g transform="matrix(18,0,0,18,115.065,106.5)">
        <path d="M0.254,0.011C0.284,0.011 0.307,0.008 0.323,0.005L0.323,-0.099C0.314,-0.098 0.305,-0.097 0.292,-0.097C0.25,-0.097 0.228,-0.113 0.228,-0.162L0.228,-0.416L0.323,-0.416L0.323,-0.523L0.228,-0.523L0.228,-0.651L0.083,-0.651L0.083,-0.523L0.011,-0.523L0.011,-0.416L0.083,-0.416L0.083,-0.146C0.083,-0.034 0.138,0.011 0.254,0.011Z" style="fill-rule:nonzero;"/>
    </g>
    <g transform="matrix(18,0,0,18,121.684,106.5)">
        <path d="M0.287,0.011C0.445,0.011 0.546,-0.091 0.546,-0.262L0.546,-0.263C0.546,-0.432 0.443,-0.534 0.286,-0.534C0.13,-0.534 0.027,-0.431 0.027,-0.263L0.027,-0.262C0.027,-0.091 0.127,0.011 0.287,0.011ZM0.287,-0.101C0.217,-0.101 0.172,-0.159 0.172,-0.262L0.172,-0.263C0.172,-0.364 0.217,-0.422 0.286,-0.422C0.355,-0.422 0.401,-0.364 0.401,-0.263L0.401,-0.262C0.401,-0.16 0.356,-0.101 0.287,-0.101Z" style="fill-rule:nonzero;"/>
    </g>
    <g transform="matrix(18,0,0,18,132.347,106.5)">
        <path d="M0.046,-0L0.189,-0L0.189,-0.301C0.189,-0.369 0.229,-0.416 0.293,-0.416C0.357,-0.416 0.39,-0.377 0.39,-0.309L0.39,-0L0.532,-0L0.532,-0.338C0.532,-0.46 0.467,-0.534 0.352,-0.534C0.272,-0.534 0.219,-0.498 0.192,-0.438L0.189,-0.438L0.189,-0.523L0.046,-0.523L0.046,-0Z" style="fill-rule:nonzero;"/>
    </g>
    <g transform="matrix(18,0,0,18,143.072,106.5)">
        <path d="M0.262,0.011C0.396,0.011 0.491,-0.057 0.491,-0.159L0.491,-0.16C0.491,-0.237 0.446,-0.28 0.336,-0.303L0.248,-0.322C0.195,-0.333 0.177,-0.351 0.177,-0.377L0.177,-0.378C0.177,-0.412 0.208,-0.434 0.257,-0.434C0.31,-0.434 0.34,-0.405 0.345,-0.368L0.346,-0.364L0.477,-0.364L0.477,-0.369C0.474,-0.46 0.396,-0.534 0.257,-0.534C0.124,-0.534 0.038,-0.47 0.038,-0.37L0.038,-0.37C0.038,-0.292 0.089,-0.241 0.19,-0.219L0.279,-0.201C0.331,-0.189 0.348,-0.173 0.348,-0.146L0.348,-0.145C0.348,-0.111 0.315,-0.09 0.262,-0.09C0.205,-0.09 0.174,-0.114 0.165,-0.155L0.164,-0.16L0.024,-0.16L0.025,-0.155C0.036,-0.056 0.117,0.011 0.262,0.011Z" style="fill-rule:nonzero;"/>
    </g>
    <g transform="matrix(12.42,0,0,12.42,89.1255,340.23)">
        <path d="M0.059,-0L0.371,-0C0.521,-0 0.614,-0.077 0.614,-0.201L0.614,-0.202C0.614,-0.294 0.543,-0.363 0.445,-0.371L0.445,-0.374C0.523,-0.384 0.582,-0.45 0.582,-0.527L0.582,-0.528C0.582,-0.636 0.498,-0.705 0.365,-0.705L0.059,-0.705L0.059,-0ZM0.327,-0.595C0.396,-0.595 0.437,-0.563 0.437,-0.507L0.437,-0.506C0.437,-0.445 0.392,-0.41 0.309,-0.41L0.206,-0.41L0.206,-0.595L0.327,-0.595ZM0.327,-0.31C0.417,-0.31 0.464,-0.275 0.464,-0.211L0.464,-0.21C0.464,-0.145 0.417,-0.11 0.333,-0.11L0.206,-0.11L0.206,-0.31L0.327,-0.31Z" style="fill-rule:nonzero;"/>
    </g>
    <g transform="matrix(12.42,0,0,12.42,97.6119,340.23)">
        <rect x="0.05" y="-0.705" width="0.143" height="0.705" style="fill-rule:nonzero;"/>
    </g>
    <g transform="matrix(12.42,0,0,12.42,101.162,340.23)">
        <path d="M0.225,0.011C0.304,0.011 0.357,-0.026 0.384,-0.086L0.387,-0.086L0.387,-0L0.53,-0L0.53,-0.523L0.387,-0.523L0.387,-0.223C0.387,-0.154 0.347,-0.107 0.283,-0.107C0.219,-0.107 0.187,-0.147 0.187,-0.215L0.187,-0.523L0.044,-0.523L0.044,-0.186C0.044,-0.063 0.109,0.011 0.225,0.011Z" style="fill-rule:nonzero;"/>
    </g>
    <g transform="matrix(12.42,0,0,12.42,108.86,340.23)">
        <path d="M0.285,0.011C0.434,0.011 0.506,-0.078 0.522,-0.155L0.524,-0.16L0.393,-0.16L0.392,-0.157C0.382,-0.128 0.346,-0.096 0.288,-0.096C0.215,-0.096 0.169,-0.145 0.168,-0.228L0.528,-0.228L0.528,-0.272C0.528,-0.43 0.432,-0.534 0.279,-0.534C0.125,-0.534 0.027,-0.428 0.027,-0.261L0.027,-0.261C0.027,-0.093 0.125,0.011 0.285,0.011ZM0.281,-0.428C0.34,-0.428 0.383,-0.39 0.392,-0.318L0.169,-0.318C0.179,-0.389 0.223,-0.428 0.281,-0.428Z" style="fill-rule:nonzero;"/>
    </g>
    <g transform="matrix(12.42,0,0,12.42,116.297,340.23)">
        <path d="M0.254,0.011C0.284,0.011 0.307,0.008 0.323,0.005L0.323,-0.099C0.314,-0.098 0.305,-0.097 0.292,-0.097C0.25,-0.097 0.228,-0.113 0.228,-0.162L0.228,-0.416L0.323,-0.416L0.323,-0.523L0.228,-0.523L0.228,-0.651L0.083,-0.651L0.083,-0.523L0.011,-0.523L0.011,-0.416L0.083,-0.416L0.083,-0.146C0.083,-0.034 0.138,0.011 0.254,0.011Z" style="fill-rule:nonzero;"/>
    </g>
    <g transform="matrix(12.42,0,0,12.42,121.163,340.23)">
        <path d="M0.287,0.011C0.445,0.011 0.546,-0.091 0.546,-0.262L0.546,-0.263C0.546,-0.432 0.443,-0.534 0.286,-0.534C0.13,-0.534 0.027,-0.431 0.027,-0.263L0.027,-0.262C0.027,-0.091 0.127,0.011 0.287,0.011ZM0.287,-0.101C0.217,-0.101 0.172,-0.159 0.172,-0.262L0.172,-0.263C0.172,-0.364 0.217,-0.422 0.286,-0.422C0.355,-0.422 0.401,-0.364 0.401,-0.263L0.401,-0.262C0.401,-0.16 0.356,-0.101 0.287,-0.101Z" style="fill-rule:nonzero;"/>
    </g>
    <g transform="matrix(12.42,0,0,12.42,128.819,340.23)">
        <path d="M0.287,0.011C0.445,0.011 0.546,-0.091 0.546,-0.262L0.546,-0.263C0.546,-0.432 0.443,-0.534 0.286,-0.534C0.13,-0.534 0.027,-0.431 0.027,-0.263L0.027,-0.262C0.027,-0.091 0.127,0.011 0.287,0.011ZM0.287,-0.101C0.217,-0.101 0.172,-0.159 0.172,-0.262L0.172,-0.263C0.172,-0.364 0.217,-0.422 0.286,-0.422C0.355,-0.422 0.401,-0.364 0.401,-0.263L0.401,-0.262C0.401,-0.16 0.356,-0.101 0.287,-0.101Z" style="fill-rule:nonzero;"/>
    </g>
    <g transform="matrix(12.42,0,0,12.42,136.475,340.23)">
        <path d="M0.254,0.011C0.284,0.011 0.307,0.008 0.323,0.005L0.323,-0.099C0.314,-0.098 0.305,-0.097 0.292,-0.097C0.25,-0.097 0.228,-0.113 0.228,-0.162L0.228,-0.416L0.323,-0.416L0.323,-0.523L0.228,-0.523L0.228,-0.651L0.083,-0.651L0.083,-0.523L0.011,-0.523L0.011,-0.416L0.083,-0.416L0.083,-0.146C0.083,-0.034 0.138,0.011 0.254,0.011Z" style="fill-rule:nonzero;"/>
    </g>
    <g transform="matrix(12.42,0,0,12.42,141.432,340.23)">
        <path d="M0.05,-0L0.192,-0L0.192,-0.3C0.192,-0.368 0.233,-0.416 0.296,-0.416C0.361,-0.416 0.397,-0.373 0.397,-0.299L0.397,-0L0.54,-0L0.54,-0.329C0.54,-0.455 0.469,-0.534 0.356,-0.534C0.277,-0.534 0.222,-0.498 0.195,-0.433L0.192,-0.433L0.192,-0.705L0.05,-0.705L0.05,-0Z" style="fill-rule:nonzero;"/>
    </g>
    <g transform="matrix(18,0,0,18,687.835,139.44)">
        <path d="M0.316,0.012C0.494,0.012 0.6,-0.074 0.6,-0.209L0.6,-0.209C0.6,-0.32 0.534,-0.38 0.386,-0.41L0.312,-0.425C0.23,-0.441 0.194,-0.467 0.194,-0.511L0.194,-0.512C0.194,-0.562 0.24,-0.597 0.315,-0.597C0.388,-0.597 0.439,-0.563 0.446,-0.508L0.447,-0.502L0.586,-0.502L0.585,-0.512C0.579,-0.635 0.479,-0.717 0.315,-0.717C0.159,-0.717 0.047,-0.632 0.047,-0.503L0.047,-0.502C0.047,-0.396 0.117,-0.33 0.256,-0.302L0.331,-0.288C0.418,-0.27 0.453,-0.246 0.453,-0.198L0.453,-0.197C0.453,-0.144 0.401,-0.108 0.32,-0.108C0.239,-0.108 0.181,-0.142 0.172,-0.197L0.171,-0.202L0.032,-0.202L0.032,-0.194C0.041,-0.064 0.148,0.012 0.316,0.012Z" style="fill-rule:nonzero;"/>
    </g>
    <g transform="matrix(18,0,0,18,699.73,139.44)">
        <path d="M0.059,-0L0.206,-0L0.206,-0.222L0.342,-0.222C0.49,-0.222 0.589,-0.318 0.589,-0.463L0.589,-0.464C0.589,-0.609 0.49,-0.705 0.342,-0.705L0.059,-0.705L0.059,-0ZM0.306,-0.588C0.39,-0.588 0.44,-0.543 0.44,-0.463L0.44,-0.462C0.44,-0.382 0.39,-0.337 0.306,-0.337L0.206,-0.337L0.206,-0.588L0.306,-0.588Z" style="fill-rule:nonzero;"/>
    </g>
    <g transform="matrix(18,0,0,18,711.38,139.44)">
        <rect x="0.059" y="-0.705" width="0.147" height="0.705" style="fill-rule:nonzero;"/>
    </g>
    <g transform="matrix(18,0,0,18,721.326,139.44)">
        <path d="M0.046,-0L0.189,-0L0.189,-0.316C0.189,-0.375 0.226,-0.416 0.28,-0.416C0.333,-0.416 0.364,-0.383 0.364,-0.327L0.364,-0L0.501,-0L0.501,-0.318C0.501,-0.376 0.537,-0.416 0.591,-0.416C0.646,-0.416 0.677,-0.383 0.677,-0.322L0.677,-0L0.819,-0L0.819,-0.358C0.819,-0.463 0.75,-0.534 0.648,-0.534C0.571,-0.534 0.509,-0.492 0.485,-0.426L0.482,-0.426C0.465,-0.495 0.412,-0.534 0.338,-0.534C0.268,-0.534 0.213,-0.495 0.192,-0.436L0.189,-0.436L0.189,-0.523L0.046,-0.523L0.046,-0Z" style="fill-rule:nonzero;"/>
    </g>
    <g transform="matrix(18,0,0,18,737.397,139.44)">
        <path d="M0.202,0.008C0.271,0.008 0.327,-0.024 0.356,-0.078L0.359,-0.078L0.359,-0L0.502,-0L0.502,-0.359C0.502,-0.464 0.415,-0.534 0.279,-0.534C0.141,-0.534 0.058,-0.465 0.05,-0.368L0.05,-0.362L0.18,-0.362L0.181,-0.367C0.188,-0.4 0.22,-0.425 0.273,-0.425C0.329,-0.425 0.359,-0.396 0.359,-0.35L0.359,-0.318L0.23,-0.31C0.1,-0.302 0.026,-0.246 0.026,-0.151L0.026,-0.15C0.026,-0.058 0.097,0.008 0.202,0.008ZM0.167,-0.157L0.167,-0.158C0.167,-0.195 0.196,-0.219 0.251,-0.222L0.359,-0.229L0.359,-0.191C0.359,-0.137 0.313,-0.096 0.249,-0.096C0.199,-0.096 0.167,-0.119 0.167,-0.157Z" style="fill-rule:nonzero;"/>
    </g>
    <g transform="matrix(18,0,0,18,747.781,139.44)">
        <path d="M0.262,0.011C0.396,0.011 0.491,-0.057 0.491,-0.159L0.491,-0.16C0.491,-0.237 0.446,-0.28 0.336,-0.303L0.248,-0.322C0.195,-0.333 0.177,-0.351 0.177,-0.377L0.177,-0.378C0.177,-0.412 0.208,-0.434 0.257,-0.434C0.31,-0.434 0.34,-0.405 0.345,-0.368L0.346,-0.364L0.477,-0.364L0.477,-0.369C0.474,-0.46 0.396,-0.534 0.257,-0.534C0.124,-0.534 0.038,-0.47 0.038,-0.37L0.038,-0.37C0.038,-0.292 0.089,-0.241 0.19,-0.219L0.279,-0.201C0.331,-0.189 0.348,-0.173 0.348,-0.146L0.348,-0.145C0.348,-0.111 0.315,-0.09 0.262,-0.09C0.205,-0.09 0.174,-0.114 0.165,-0.155L0.164,-0.16L0.024,-0.16L0.025,-0.155C0.036,-0.056 0.117,0.011 0.262,0.011Z" style="fill-rule:nonzero;"/>
    </g>
    <g transform="matrix(18,0,0,18,757.576,139.44)">
        <path d="M0.254,0.011C0.284,0.011 0.307,0.008 0.323,0.005L0.323,-0.099C0.314,-0.098 0.305,-0.097 0.292,-0.097C0.25,-0.097 0.228,-0.113 0.228,-0.162L0.228,-0.416L0.323,-0.416L0.323,-0.523L0.228,-0.523L0.228,-0.651L0.083,-0.651L0.083,-0.523L0.011,-0.523L0.011,-0.416L0.083,-0.416L0.083,-0.146C0.083,-0.034 0.138,0.011 0.254,0.011Z" style="fill-rule:nonzero;"/>
    </g>
    <g transform="matrix(18,0,0,18,764.374,139.44)">
        <path d="M0.285,0.011C0.434,0.011 0.506,-0.078 0.522,-0.155L0.524,-0.16L0.393,-0.16L0.392,-0.157C0.382,-0.128 0.346,-0.096 0.288,-0.096C0.215,-0.096 0.169,-0.145 0.168,-0.228L0.528,-0.228L0.528,-0.272C0.528,-0.43 0.432,-0.534 0.279,-0.534C0.125,-0.534 0.027,-0.428 0.027,-0.261L0.027,-0.261C0.027,-0.093 0.125,0.011 0.285,0.011ZM0.281,-0.428C0.34,-0.428 0.383,-0.39 0.392,-0.318L0.169,-0.318C0.179,-0.389 0.223,-0.428 0.281,-0.428Z" style="fill-rule:nonzero;"/>
    </g>
    <g transform="matrix(18,0,0,18,774.899,139.44)">
        <path d="M0.046,-0L0.189,-0L0.189,-0.293C0.189,-0.369 0.23,-0.411 0.3,-0.411C0.321,-0.411 0.34,-0.408 0.352,-0.403L0.352,-0.529C0.341,-0.532 0.327,-0.534 0.311,-0.534C0.25,-0.534 0.208,-0.497 0.192,-0.432L0.189,-0.432L0.189,-0.523L0.046,-0.523L0.046,-0Z" style="fill-rule:nonzero;"/>
    </g>
    <g transform="matrix(18,0,0,18,695.678,210.961)">
        <path d="M0.316,0.012C0.494,0.012 0.6,-0.074 0.6,-0.209L0.6,-0.209C0.6,-0.32 0.534,-0.38 0.386,-0.41L0.312,-0.425C0.23,-0.441 0.194,-0.467 0.194,-0.511L0.194,-0.512C0.194,-0.562 0.24,-0.597 0.315,-0.597C0.388,-0.597 0.439,-0.563 0.446,-0.508L0.447,-0.502L0.586,-0.502L0.585,-0.512C0.579,-0.635 0.479,-0.717 0.315,-0.717C0.159,-0.717 0.047,-0.632 0.047,-0.503L0.047,-0.502C0.047,-0.396 0.117,-0.33 0.256,-0.302L0.331,-0.288C0.418,-0.27 0.453,-0.246 0.453,-0.198L0.453,-0.197C0.453,-0.144 0.401,-0.108 0.32,-0.108C0.239,-0.108 0.181,-0.142 0.172,-0.197L0.171,-0.202L0.032,-0.202L0.032,-0.194C0.041,-0.064 0.148,0.012 0.316,0.012Z" style="fill-rule:nonzero;"/>
    </g>
    <g transform="matrix(18,0,0,18,707.585,210.961)">
        <path d="M0.059,-0L0.206,-0L0.206,-0.222L0.342,-0.222C0.49,-0.222 0.589,-0.318 0.589,-0.463L0.589,-0.464C0.589,-0.609 0.49,-0.705 0.342,-0.705L0.059,-0.705L0.059,-0ZM0.306,-0.588C0.39,-0.588 0.44,-0.543 0.44,-0.463L0.44,-0.462C0.44,-0.382 0.39,-0.337 0.306,-0.337L0.206,-0.337L0.206,-0.588L0.306,-0.588Z" style="fill-rule:nonzero;"/>
    </g>
    <g transform="matrix(18,0,0,18,719.245,210.961)">
        <rect x="0.059" y="-0.705" width="0.147" height="0.705" style="fill-rule:nonzero;"/>
    </g>
    <g transform="matrix(18,0,0,18,729.202,210.961)">
        <path d="M0.262,0.011C0.396,0.011 0.491,-0.057 0.491,-0.159L0.491,-0.16C0.491,-0.237 0.446,-0.28 0.336,-0.303L0.248,-0.322C0.195,-0.333 0.177,-0.351 0.177,-0.377L0.177,-0.378C0.177,-0.412 0.208,-0.434 0.257,-0.434C0.31,-0.434 0.34,-0.405 0.345,-0.368L0.346,-0.364L0.477,-0.364L0.477,-0.369C0.474,-0.46 0.396,-0.534 0.257,-0.534C0.124,-0.534 0.038,-0.47 0.038,-0.37L0.038,-0.37C0.038,-0.292 0.089,-0.241 0.19,-0.219L0.279,-0.201C0.331,-0.189 0.348,-0.173 0.348,-0.146L0.348,-0.145C0.348,-0.111 0.315,-0.09 0.262,-0.09C0.205,-0.09 0.174,-0.114 0.165,-0.155L0.164,-0.16L0.024,-0.16L0.025,-0.155C0.036,-0.056 0.117,0.011 0.262,0.011Z" style="fill-rule:nonzero;"/>
    </g>
    <g transform="matrix(18,0,0,18,739.008,210.961)">
        <rect x="0.05" y="-0.705" width="0.143" height="0.705" style="fill-rule:nonzero;"/>
    </g>
    <g transform="matrix(18,0,0,18,743.91,210.961)">
        <path d="M0.202,0.008C0.271,0.008 0.327,-0.024 0.356,-0.078L0.359,-0.078L0.359,-0L0.502,-0L0.502,-0.359C0.502,-0.464 0.415,-0.534 0.279,-0.534C0.141,-0.534 0.058,-0.465 0.05,-0.368L0.05,-0.362L0.18,-0.362L0.181,-0.367C0.188,-0.4 0.22,-0.425 0.273,-0.425C0.329,-0.425 0.359,-0.396 0.359,-0.35L0.359,-0.318L0.23,-0.31C0.1,-0.302 0.026,-0.246 0.026,-0.151L0.026,-0.15C0.026,-0.058 0.097,0.008 0.202,0.008ZM0.167,-0.157L0.167,-0.158C0.167,-0.195 0.196,-0.219 0.251,-0.222L0.359,-0.229L0.359,-0.191C0.359,-0.137 0.313,-0.096 0.249,-0.096C0.199,-0.096 0.167,-0.119 0.167,-0.157Z" style="fill-rule:nonzero;"/>
    </g>
    <g transform="matrix(18,0,0,18,754.261,210.961)">
        <path d="M0.185,-0L0.345,-0L0.525,-0.523L0.376,-0.523L0.268,-0.126L0.265,-0.126L0.156,-0.523L0.003,-0.523L0.185,-0Z" style="fill-rule:nonzero;"/>
    </g>
    <g transform="matrix(18,0,0,18,763.988,210.961)">
        <path d="M0.285,0.011C0.434,0.011 0.506,-0.078 0.522,-0.155L0.524,-0.16L0.393,-0.16L0.392,-0.157C0.382,-0.128 0.346,-0.096 0.288,-0.096C0.215,-0.096 0.169,-0.145 0.168,-0.228L0.528,-0.228L0.528,-0.272C0.528,-0.43 0.432,-0.534 0.279,-0.534C0.125,-0.534 0.027,-0.428 0.027,-0.261L0.027,-0.261C0.027,-0.093 0.125,0.011 0.285,0.011ZM0.281,-0.428C0.34,-0.428 0.383,-0.39 0.392,-0.318L0.169,-0.318C0.179,-0.389 0.223,-0.428 0.281,-0.428Z" style="fill-rule:nonzero;"/>
    </g>
    <g transform="matrix(18,0,0,18,711.724,282.482)">
        <path d="M0.376,0.012C0.572,0.012 0.688,-0.104 0.688,-0.296L0.688,-0.377L0.384,-0.377L0.384,-0.267L0.545,-0.267L0.544,-0.257C0.541,-0.17 0.475,-0.113 0.378,-0.113C0.261,-0.113 0.187,-0.203 0.187,-0.356L0.187,-0.356C0.187,-0.506 0.257,-0.592 0.373,-0.592C0.453,-0.592 0.509,-0.552 0.532,-0.484L0.534,-0.479L0.682,-0.479L0.681,-0.486C0.657,-0.618 0.542,-0.717 0.373,-0.717C0.166,-0.717 0.037,-0.581 0.037,-0.355L0.037,-0.354C0.037,-0.125 0.166,0.012 0.376,0.012Z" style="fill-rule:nonzero;"/>
    </g>
    <g transform="matrix(18,0,0,18,725.832,282.482)">
        <path d="M0.059,-0L0.206,-0L0.206,-0.222L0.342,-0.222C0.49,-0.222 0.589,-0.318 0.589,-0.463L0.589,-0.464C0.589,-0.609 0.49,-0.705 0.342,-0.705L0.059,-0.705L0.059,-0ZM0.306,-0.588C0.39,-0.588 0.44,-0.543 0.44,-0.463L0.44,-0.462C0.44,-0.382 0.39,-0.337 0.306,-0.337L0.206,-0.337L0.206,-0.588L0.306,-0.588Z" style="fill-rule:nonzero;"/>
    </g>
    <g transform="matrix(18,0,0,18,737.972,282.482)">
        <rect x="0.059" y="-0.705" width="0.147" height="0.705" style="fill-rule:nonzero;"/>
    </g>
    <g transform="matrix(18,0,0,18,743.757,282.482)">
        <path d="M0.376,0.012C0.586,0.012 0.716,-0.128 0.716,-0.352L0.716,-0.353C0.716,-0.577 0.585,-0.717 0.376,-0.717C0.168,-0.717 0.037,-0.577 0.037,-0.353L0.037,-0.352C0.037,-0.128 0.167,0.012 0.376,0.012ZM0.376,-0.113C0.261,-0.113 0.187,-0.205 0.187,-0.352L0.187,-0.353C0.187,-0.5 0.261,-0.592 0.376,-0.592C0.492,-0.592 0.566,-0.5 0.566,-0.353L0.566,-0.352C0.566,-0.206 0.494,-0.113 0.376,-0.113Z" style="fill-rule:nonzero;"/>
    </g>
    <g transform="matrix(18,0,0,18,695.39,354.002)">
        <rect x="0.059" y="-0.705" width="0.147" height="0.705" style="fill-rule:nonzero;"/>
    </g>
    <g transform="matrix(18,0,0,18,700.472,354.002)">
        <path d="M0.046,-0L0.189,-0L0.189,-0.301C0.189,-0.369 0.229,-0.416 0.293,-0.416C0.357,-0.416 0.39,-0.377 0.39,-0.309L0.39,-0L0.532,-0L0.532,-0.338C0.532,-0.46 0.467,-0.534 0.352,-0.534C0.272,-0.534 0.219,-0.498 0.192,-0.438L0.189,-0.438L0.189,-0.523L0.046,-0.523L0.046,-0Z" style="fill-rule:nonzero;"/>
    </g>
    <g transform="matrix(18,0,0,18,711.161,354.002)">
        <path d="M0.254,0.011C0.284,0.011 0.307,0.008 0.323,0.005L0.323,-0.099C0.314,-0.098 0.305,-0.097 0.292,-0.097C0.25,-0.097 0.228,-0.113 0.228,-0.162L0.228,-0.416L0.323,-0.416L0.323,-0.523L0.228,-0.523L0.228,-0.651L0.083,-0.651L0.083,-0.523L0.011,-0.523L0.011,-0.416L0.083,-0.416L0.083,-0.146C0.083,-0.034 0.138,0.011 0.254,0.011Z" style="fill-rule:nonzero;"/>
    </g>
    <g transform="matrix(18,0,0,18,717.745,354.002)">
        <path d="M0.285,0.011C0.434,0.011 0.506,-0.078 0.522,-0.155L0.524,-0.16L0.393,-0.16L0.392,-0.157C0.382,-0.128 0.346,-0.096 0.288,-0.096C0.215,-0.096 0.169,-0.145 0.168,-0.228L0.528,-0.228L0.528,-0.272C0.528,-0.43 0.432,-0.534 0.279,-0.534C0.125,-0.534 0.027,-0.428 0.027,-0.261L0.027,-0.261C0.027,-0.093 0.125,0.011 0.285,0.011ZM0.281,-0.428C0.34,-0.428 0.383,-0.39 0.392,-0.318L0.169,-0.318C0.179,-0.389 0.223,-0.428 0.281,-0.428Z" style="fill-rule:nonzero;"/>
    </g>
    <g transform="matrix(18,0,0,18,728.056,354.002)">
        <path d="M0.046,-0L0.189,-0L0.189,-0.293C0.189,-0.369 0.23,-0.411 0.3,-0.411C0.321,-0.411 0.34,-0.408 0.352,-0.403L0.352,-0.529C0.341,-0.532 0.327,-0.534 0.311,-0.534C0.25,-0.534 0.208,-0.497 0.192,-0.432L0.189,-0.432L0.189,-0.523L0.046,-0.523L0.046,-0Z" style="fill-rule:nonzero;"/>
    </g>
    <g transform="matrix(18,0,0,18,734.966,354.002)">
        <path d="M0.084,-0L0.227,-0L0.227,-0.416L0.328,-0.416L0.328,-0.523L0.224,-0.523L0.224,-0.56C0.224,-0.598 0.245,-0.618 0.292,-0.618C0.305,-0.618 0.319,-0.617 0.329,-0.615L0.329,-0.709C0.312,-0.713 0.283,-0.715 0.257,-0.715C0.133,-0.715 0.084,-0.668 0.084,-0.565L0.084,-0.523L0.013,-0.523L0.013,-0.416L0.084,-0.416L0.084,-0Z" style="fill-rule:nonzero;"/>
    </g>
    <g transform="matrix(18,0,0,18,741.208,354.002)">
        <path d="M0.202,0.008C0.271,0.008 0.327,-0.024 0.356,-0.078L0.359,-0.078L0.359,-0L0.502,-0L0.502,-0.359C0.502,-0.464 0.415,-0.534 0.279,-0.534C0.141,-0.534 0.058,-0.465 0.05,-0.368L0.05,-0.362L0.18,-0.362L0.181,-0.367C0.188,-0.4 0.22,-0.425 0.273,-0.425C0.329,-0.425 0.359,-0.396 0.359,-0.35L0.359,-0.318L0.23,-0.31C0.1,-0.302 0.026,-0.246 0.026,-0.151L0.026,-0.15C0.026,-0.058 0.097,0.008 0.202,0.008ZM0.167,-0.157L0.167,-0.158C0.167,-0.195 0.196,-0.219 0.251,-0.222L0.359,-0.229L0.359,-0.191C0.359,-0.137 0.313,-0.096 0.249,-0.096C0.199,-0.096 0.167,-0.119 0.167,-0.157Z" style="fill-rule:nonzero;"/>
    </g>
    <g transform="matrix(18,0,0,18,751.378,354.002)">
        <path d="M0.286,0.011C0.425,0.011 0.516,-0.076 0.522,-0.19L0.522,-0.193L0.39,-0.193L0.389,-0.189C0.379,-0.136 0.344,-0.101 0.287,-0.101C0.216,-0.101 0.172,-0.159 0.172,-0.262L0.172,-0.262C0.172,-0.362 0.216,-0.422 0.286,-0.422C0.345,-0.422 0.38,-0.384 0.389,-0.334L0.39,-0.33L0.522,-0.33L0.522,-0.333C0.517,-0.447 0.426,-0.534 0.284,-0.534C0.127,-0.534 0.027,-0.43 0.027,-0.263L0.027,-0.262C0.027,-0.093 0.126,0.011 0.286,0.011Z" style="fill-rule:nonzero;"/>
    </g>
    <g transform="matrix(18,0,0,18,761.504,354.002)">
        <path d="M0.285,0.011C0.434,0.011 0.506,-0.078 0.522,-0.155L0.524,-0.16L0.393,-0.16L0.392,-0.157C0.382,-0.128 0.346,-0.096 0.288,-0.096C0.215,-0.096 0.169,-0.145 0.168,-0.228L0.528,-0.228L0.528,-0.272C0.528,-0.43 0.432,-0.534 0.279,-0.534C0.125,-0.534 0.027,-0.428 0.027,-0.261L0.027,-0.261C0.027,-0.093 0.125,0.011 0.285,0.011ZM0.281,-0.428C0.34,-0.428 0.383,-0.39 0.392,-0.318L0.169,-0.318C0.179,-0.389 0.223,-0.428 0.281,-0.428Z" style="fill-rule:nonzero;"/>
    </g>
    <g transform="matrix(36,0,0,36,672.371,79.4219)">
        <path d="M0.059,-0L0.514,-0L0.514,-0.122L0.206,-0.122L0.206,-0.705L0.059,-0.705L0.059,-0Z" style="fill-rule:nonzero;"/>
    </g>
    <g transform="matrix(36,0,0,36,692.206,79.4219)">
        <path d="M0.285,0.011C0.434,0.011 0.506,-0.078 0.522,-0.155L0.524,-0.16L0.393,-0.16L0.392,-0.157C0.382,-0.128 0.346,-0.096 0.288,-0.096C0.215,-0.096 0.169,-0.145 0.168,-0.228L0.528,-0.228L0.528,-0.272C0.528,-0.43 0.432,-0.534 0.279,-0.534C0.125,-0.534 0.027,-0.428 0.027,-0.261L0.027,-0.261C0.027,-0.093 0.125,0.011 0.285,0.011ZM0.281,-0.428C0.34,-0.428 0.383,-0.39 0.392,-0.318L0.169,-0.318C0.179,-0.389 0.223,-0.428 0.281,-0.428Z" style="fill-rule:nonzero;"/>
    </g>
    <g transform="matrix(36,0,0,36,712.744,79.4219)">
        <path d="M0.291,0.182C0.448,0.182 0.546,0.102 0.546,-0.015L0.546,-0.523L0.404,-0.523L0.404,-0.434L0.401,-0.434C0.373,-0.495 0.315,-0.534 0.242,-0.534C0.109,-0.534 0.027,-0.435 0.027,-0.268L0.027,-0.268C0.027,-0.105 0.108,-0.007 0.239,-0.007C0.315,-0.007 0.374,-0.042 0.401,-0.097L0.404,-0.097L0.404,-0.017C0.404,0.042 0.365,0.08 0.291,0.08C0.231,0.08 0.193,0.058 0.182,0.032L0.181,0.028L0.042,0.028L0.042,0.033C0.056,0.117 0.147,0.182 0.291,0.182ZM0.289,-0.112C0.217,-0.112 0.172,-0.17 0.172,-0.264L0.172,-0.265C0.172,-0.358 0.218,-0.416 0.289,-0.416C0.358,-0.416 0.404,-0.358 0.404,-0.265L0.404,-0.264C0.404,-0.17 0.358,-0.112 0.289,-0.112Z" style="fill-rule:nonzero;"/>
    </g>
    <g transform="matrix(36,0,0,36,734.653,79.4219)">
        <path d="M0.285,0.011C0.434,0.011 0.506,-0.078 0.522,-0.155L0.524,-0.16L0.393,-0.16L0.392,-0.157C0.382,-0.128 0.346,-0.096 0.288,-0.096C0.215,-0.096 0.169,-0.145 0.168,-0.228L0.528,-0.228L0.528,-0.272C0.528,-0.43 0.432,-0.534 0.279,-0.534C0.125,-0.534 0.027,-0.428 0.027,-0.261L0.027,-0.261C0.027,-0.093 0.125,0.011 0.285,0.011ZM0.281,-0.428C0.34,-0.428 0.383,-0.39 0.392,-0.318L0.169,-0.318C0.179,-0.389 0.223,-0.428 0.281,-0.428Z" style="fill-rule:nonzero;"/>
    </g>
    <g transform="matrix(36,0,0,36,755.192,79.4219)">
        <path d="M0.046,-0L0.189,-0L0.189,-0.301C0.189,-0.369 0.229,-0.416 0.293,-0.416C0.357,-0.416 0.39,-0.377 0.39,-0.309L0.39,-0L0.532,-0L0.532,-0.338C0.532,-0.46 0.467,-0.534 0.352,-0.534C0.272,-0.534 0.219,-0.498 0.192,-0.438L0.189,-0.438L0.189,-0.523L0.046,-0.523L0.046,-0Z" style="fill-rule:nonzero;"/>
    </g>
    <g transform="matrix(36,0,0,36,776.486,79.4219)">
        <path d="M0.24,0.011C0.316,0.011 0.374,-0.027 0.401,-0.089L0.404,-0.089L0.404,-0L0.547,-0L0.547,-0.705L0.404,-0.705L0.404,-0.433L0.401,-0.433C0.373,-0.496 0.314,-0.534 0.24,-0.534C0.108,-0.534 0.027,-0.433 0.027,-0.262L0.027,-0.262C0.027,-0.092 0.108,0.011 0.24,0.011ZM0.288,-0.107C0.217,-0.107 0.172,-0.167 0.172,-0.262L0.172,-0.262C0.172,-0.358 0.217,-0.416 0.288,-0.416C0.357,-0.416 0.405,-0.356 0.405,-0.262L0.405,-0.262C0.405,-0.167 0.357,-0.107 0.288,-0.107Z" style="fill-rule:nonzero;"/>
    </g>
</svg>
